solid OpenSCAD_Model
  facet normal -0.707107 -0.707107 0
    outer loop
      vertex -4.14214 9.14214 0
      vertex 0 5 0
      vertex -4.14214 9.14214 20
    endloop
  endfacet
  facet normal -0.707107 -0.707107 0
    outer loop
      vertex -4.14214 9.14214 20
      vertex 0 5 0
      vertex 0 5 20
    endloop
  endfacet
  facet normal 0 0 -1
    outer loop
      vertex -4.14214 9.14214 0
      vertex 0 13.2843 0
      vertex 0 5 0
    endloop
  endfacet
  facet normal 0 0 -1
    outer loop
      vertex 6.71573 20 0
      vertex 0 13.2843 0
      vertex 0 20 0
    endloop
  endfacet
  facet normal 0 0 -1
    outer loop
      vertex 0 5 0
      vertex 0 13.2843 0
      vertex 6.71573 20 0
    endloop
  endfacet
  facet normal 0 0 -1
    outer loop
      vertex 0 5 0
      vertex 6.71573 20 0
      vertex 10 23.2843 0
    endloop
  endfacet
  facet normal 0 0 -1
    outer loop
      vertex 0 5 0
      vertex 10 23.2843 0
      vertex 13.2843 20 0
    endloop
  endfacet
  facet normal 0 0 -1
    outer loop
      vertex 0 5 0
      vertex 13.2843 20 0
      vertex 20 20 0
    endloop
  endfacet
  facet normal 0 0 -1
    outer loop
      vertex 0 5 0
      vertex 20 20 0
      vertex 20 13.2843 0
    endloop
  endfacet
  facet normal 0 0 -1
    outer loop
      vertex 0 5 0
      vertex 20 13.2843 0
      vertex 24.1421 9.14214 0
    endloop
  endfacet
  facet normal 0 0 -1
    outer loop
      vertex 0 5 0
      vertex 24.1421 9.14214 0
      vertex 20 5 0
    endloop
  endfacet
  facet normal 0 0 -1
    outer loop
      vertex 0 5 0
      vertex 20 5 0
      vertex 20 0 0
    endloop
  endfacet
  facet normal 0 0 -1
    outer loop
      vertex 0 5 0
      vertex 20 0 0
      vertex 15 0 0
    endloop
  endfacet
  facet normal 0 0 -1
    outer loop
      vertex 5 0 0
      vertex 15 0 0
      vertex 10 -5 0
    endloop
  endfacet
  facet normal 0 0 -1
    outer loop
      vertex 0 5 0
      vertex 15 0 0
      vertex 5 0 0
    endloop
  endfacet
  facet normal 0 0 -1
    outer loop
      vertex 5 0 0
      vertex 0 0 0
      vertex 0 5 0
    endloop
  endfacet
  facet normal -0.707107 0.707107 0
    outer loop
      vertex -4.14214 9.14214 0
      vertex -4.14214 9.14214 20
      vertex 0 13.2843 0
    endloop
  endfacet
  facet normal -0.707107 0.707107 0
    outer loop
      vertex 0 13.2843 0
      vertex -4.14214 9.14214 20
      vertex 0 13.2843 20
    endloop
  endfacet
  facet normal 0 0 1
    outer loop
      vertex 15 0 20
      vertex 20 0 20
      vertex 0 13.2843 20
    endloop
  endfacet
  facet normal 0 0 1
    outer loop
      vertex 0 13.2843 20
      vertex -4.14214 9.14214 20
      vertex 0 5 20
    endloop
  endfacet
  facet normal 0 0 1
    outer loop
      vertex 5 0 20
      vertex 0 13.2843 20
      vertex 0 5 20
    endloop
  endfacet
  facet normal 0 0 1
    outer loop
      vertex 0 0 20
      vertex 5 0 20
      vertex 0 5 20
    endloop
  endfacet
  facet normal 0 0 1
    outer loop
      vertex 5 0 20
      vertex 10 -5 20
      vertex 0 13.2843 20
    endloop
  endfacet
  facet normal 0 0 1
    outer loop
      vertex 10 -5 20
      vertex 15 0 20
      vertex 0 13.2843 20
    endloop
  endfacet
  facet normal 0 0 1
    outer loop
      vertex 20 5 20
      vertex 24.1421 9.14214 20
      vertex 0 13.2843 20
    endloop
  endfacet
  facet normal 0 0 1
    outer loop
      vertex 20 0 20
      vertex 20 5 20
      vertex 0 13.2843 20
    endloop
  endfacet
  facet normal 0 0 1
    outer loop
      vertex 20 13.2843 20
      vertex 20 20 20
      vertex 0 13.2843 20
    endloop
  endfacet
  facet normal 0 0 1
    outer loop
      vertex 24.1421 9.14214 20
      vertex 20 13.2843 20
      vertex 0 13.2843 20
    endloop
  endfacet
  facet normal 0 0 1
    outer loop
      vertex 20 20 20
      vertex 13.2843 20 20
      vertex 0 13.2843 20
    endloop
  endfacet
  facet normal 0 0 1
    outer loop
      vertex 13.2843 20 20
      vertex 6.71573 20 20
      vertex 0 13.2843 20
    endloop
  endfacet
  facet normal 0 0 1
    outer loop
      vertex 13.2843 20 20
      vertex 10 23.2843 20
      vertex 6.71573 20 20
    endloop
  endfacet
  facet normal 0 0 1
    outer loop
      vertex 6.71573 20 20
      vertex 0 20 20
      vertex 0 13.2843 20
    endloop
  endfacet
  facet normal -1 0 0
    outer loop
      vertex 0 0 0
      vertex 0 0 20
      vertex 0 5 0
    endloop
  endfacet
  facet normal -1 0 0
    outer loop
      vertex 0 5 0
      vertex 0 0 20
      vertex 0 5 20
    endloop
  endfacet
  facet normal 0 -1 0
    outer loop
      vertex 0 0 20
      vertex 0 0 0
      vertex 5 0 0
    endloop
  endfacet
  facet normal 0 -1 0
    outer loop
      vertex 5 0 20
      vertex 0 0 20
      vertex 5 0 0
    endloop
  endfacet
  facet normal -0.707107 -0.707107 0
    outer loop
      vertex 5 0 0
      vertex 10 -5 0
      vertex 5 0 20
    endloop
  endfacet
  facet normal -0.707107 -0.707107 0
    outer loop
      vertex 5 0 20
      vertex 10 -5 0
      vertex 10 -5 20
    endloop
  endfacet
  facet normal 0.707107 -0.707107 0
    outer loop
      vertex 10 -5 20
      vertex 10 -5 0
      vertex 15 0 0
    endloop
  endfacet
  facet normal 0.707107 -0.707107 0
    outer loop
      vertex 15 0 20
      vertex 10 -5 20
      vertex 15 0 0
    endloop
  endfacet
  facet normal 0 -1 0
    outer loop
      vertex 15 0 20
      vertex 15 0 0
      vertex 20 0 0
    endloop
  endfacet
  facet normal 0 -1 0
    outer loop
      vertex 20 0 20
      vertex 15 0 20
      vertex 20 0 0
    endloop
  endfacet
  facet normal 1 0 0
    outer loop
      vertex 20 0 20
      vertex 20 0 0
      vertex 20 5 0
    endloop
  endfacet
  facet normal 1 0 0
    outer loop
      vertex 20 5 20
      vertex 20 0 20
      vertex 20 5 0
    endloop
  endfacet
  facet normal 0.707107 -0.707107 0
    outer loop
      vertex 20 5 20
      vertex 20 5 0
      vertex 24.1421 9.14214 0
    endloop
  endfacet
  facet normal 0.707107 -0.707107 0
    outer loop
      vertex 24.1421 9.14214 20
      vertex 20 5 20
      vertex 24.1421 9.14214 0
    endloop
  endfacet
  facet normal 0.707107 0.707107 0
    outer loop
      vertex 24.1421 9.14214 0
      vertex 20 13.2843 0
      vertex 20 13.2843 20
    endloop
  endfacet
  facet normal 0.707107 0.707107 0
    outer loop
      vertex 24.1421 9.14214 20
      vertex 24.1421 9.14214 0
      vertex 20 13.2843 20
    endloop
  endfacet
  facet normal 1 0 0
    outer loop
      vertex 20 13.2843 20
      vertex 20 13.2843 0
      vertex 20 20 0
    endloop
  endfacet
  facet normal 1 0 0
    outer loop
      vertex 20 20 20
      vertex 20 13.2843 20
      vertex 20 20 0
    endloop
  endfacet
  facet normal 0 1 0
    outer loop
      vertex 13.2843 20 0
      vertex 13.2843 20 20
      vertex 20 20 0
    endloop
  endfacet
  facet normal 0 1 0
    outer loop
      vertex 20 20 0
      vertex 13.2843 20 20
      vertex 20 20 20
    endloop
  endfacet
  facet normal 0.707107 0.707107 0
    outer loop
      vertex 13.2843 20 0
      vertex 10 23.2843 0
      vertex 10 23.2843 20
    endloop
  endfacet
  facet normal 0.707107 0.707107 0
    outer loop
      vertex 13.2843 20 20
      vertex 13.2843 20 0
      vertex 10 23.2843 20
    endloop
  endfacet
  facet normal -0.707107 0.707107 0
    outer loop
      vertex 6.71573 20 0
      vertex 6.71573 20 20
      vertex 10 23.2843 0
    endloop
  endfacet
  facet normal -0.707107 0.707107 0
    outer loop
      vertex 10 23.2843 0
      vertex 6.71573 20 20
      vertex 10 23.2843 20
    endloop
  endfacet
  facet normal 0 1 0
    outer loop
      vertex 0 20 0
      vertex 0 20 20
      vertex 6.71573 20 0
    endloop
  endfacet
  facet normal 0 1 0
    outer loop
      vertex 6.71573 20 0
      vertex 0 20 20
      vertex 6.71573 20 20
    endloop
  endfacet
  facet normal -1 0 0
    outer loop
      vertex 0 13.2843 0
      vertex 0 13.2843 20
      vertex 0 20 0
    endloop
  endfacet
  facet normal -1 0 0
    outer loop
      vertex 0 20 0
      vertex 0 13.2843 20
      vertex 0 20 20
    endloop
  endfacet
endsolid OpenSCAD_Model
