solid OpenSCAD_Model
  facet normal -1 0 0
    outer loop
      vertex -10 -1 0
      vertex -10 -1 2
      vertex -10 1 0
    endloop
  endfacet
  facet normal -1 0 0
    outer loop
      vertex -10 1 0
      vertex -10 -1 2
      vertex -10 0 2
    endloop
  endfacet
  facet normal -1 0 0
    outer loop
      vertex -10 1 0
      vertex -10 0 2
      vertex -10 1 2
    endloop
  endfacet
  facet normal 0 -1 0
    outer loop
      vertex -10 -1 2
      vertex -10 -1 0
      vertex -9.8949 -1 0
    endloop
  endfacet
  facet normal 0 -1 0
    outer loop
      vertex -9.8949 -1 2
      vertex -10 -1 2
      vertex -9.8949 -1 0
    endloop
  endfacet
  facet normal 0 0 -1
    outer loop
      vertex -10 -1 0
      vertex -10 1 0
      vertex -9.8949 -1 0
    endloop
  endfacet
  facet normal 0 0 -1
    outer loop
      vertex -9.8949 -1 0
      vertex -10 1 0
      vertex -9.8949 1 0
    endloop
  endfacet
  facet normal 0 0 -1
    outer loop
      vertex -9.8949 -1 0
      vertex -9.8949 1 0
      vertex -9.78148 2.07912 0
    endloop
  endfacet
  facet normal 0 0 -1
    outer loop
      vertex -9.8949 -1 0
      vertex -9.78148 2.07912 0
      vertex -9.13546 4.06737 0
    endloop
  endfacet
  facet normal 0 0 -1
    outer loop
      vertex -9.8949 -1 0
      vertex -9.13546 4.06737 0
      vertex -8.09017 5.87785 0
    endloop
  endfacet
  facet normal 0 0 -1
    outer loop
      vertex -9.8949 -1 0
      vertex -8.09017 5.87785 0
      vertex -6.69131 7.43145 0
    endloop
  endfacet
  facet normal 0 0 -1
    outer loop
      vertex -9.8949 -1 0
      vertex -6.69131 7.43145 0
      vertex -5 8.66025 0
    endloop
  endfacet
  facet normal 0 0 -1
    outer loop
      vertex -5.98809 5.30498 0
      vertex -5 8.66025 0
      vertex -3.09017 9.51056 0
    endloop
  endfacet
  facet normal 0 0 -1
    outer loop
      vertex -4.54452 6.58387 0
      vertex -3.09017 9.51056 0
      vertex -1.04529 9.94522 0
    endloop
  endfacet
  facet normal 0 0 -1
    outer loop
      vertex -1 9.94522 0
      vertex -1 10 0
      vertex 1 10 0
    endloop
  endfacet
  facet normal 0 0 -1
    outer loop
      vertex -1 7.93287 0
      vertex 1 9.94522 0
      vertex 1.04529 9.94522 0
    endloop
  endfacet
  facet normal 0 0 -1
    outer loop
      vertex 1 7.93287 0
      vertex 1.04529 9.94522 0
      vertex 3.09017 9.51056 0
    endloop
  endfacet
  facet normal 0 0 -1
    outer loop
      vertex 2.83684 7.48013 0
      vertex 3.09017 9.51056 0
      vertex 5 8.66025 0
    endloop
  endfacet
  facet normal 0 0 -1
    outer loop
      vertex 4.54452 6.58387 0
      vertex 5 8.66025 0
      vertex 6.69131 7.43145 0
    endloop
  endfacet
  facet normal 0 0 -1
    outer loop
      vertex 5.98809 5.30498 0
      vertex 6.69131 7.43145 0
      vertex 8.09017 5.87785 0
    endloop
  endfacet
  facet normal 0 0 -1
    outer loop
      vertex 7.08365 3.71778 0
      vertex 8.09017 5.87785 0
      vertex 9.13546 4.06737 0
    endloop
  endfacet
  facet normal 0 0 -1
    outer loop
      vertex 7.76753 1.91452 0
      vertex 9.13546 4.06737 0
      vertex 9.78148 2.07912 0
    endloop
  endfacet
  facet normal 0 0 -1
    outer loop
      vertex 7.87858 1 0
      vertex 9.78148 2.07912 0
      vertex 9.8949 1 0
    endloop
  endfacet
  facet normal 0 0 -1
    outer loop
      vertex -9.8949 -1 0
      vertex 9.8949 1 0
      vertex 10 1 0
    endloop
  endfacet
  facet normal 0 0 -1
    outer loop
      vertex 9.8949 -1 0
      vertex 10 1 0
      vertex 10 -1 0
    endloop
  endfacet
  facet normal 0 0 -1
    outer loop
      vertex -9.8949 -1 0
      vertex 10 1 0
      vertex -7.87858 -1 0
    endloop
  endfacet
  facet normal 0 0 -1
    outer loop
      vertex -3.09017 -9.51056 0
      vertex -5.98809 -5.30498 0
      vertex -4.54452 -6.58387 0
    endloop
  endfacet
  facet normal 0 0 -1
    outer loop
      vertex -3.09017 -9.51056 0
      vertex -4.54452 -6.58387 0
      vertex -1.04529 -9.94522 0
    endloop
  endfacet
  facet normal 0 0 -1
    outer loop
      vertex 5.98809 -5.30498 0
      vertex 8.09017 -5.87785 0
      vertex 4.54452 -6.58387 0
    endloop
  endfacet
  facet normal 0 0 -1
    outer loop
      vertex -2.83684 7.48013 0
      vertex 1 10 0
      vertex 1 9.94522 0
    endloop
  endfacet
  facet normal 0 0 -1
    outer loop
      vertex 1 -7.93287 0
      vertex 3.09017 -9.51056 0
      vertex -1 -7.93287 0
    endloop
  endfacet
  facet normal 0 0 -1
    outer loop
      vertex 1 -10 0
      vertex -1 -10 0
      vertex -1 -9.94522 0
    endloop
  endfacet
  facet normal 0 0 -1
    outer loop
      vertex 1 -7.93287 0
      vertex -1 -1 0
      vertex 1 -1 0
    endloop
  endfacet
  facet normal 0 0 -1
    outer loop
      vertex -1 -1 0
      vertex -7.87858 -1 0
      vertex 10 1 0
    endloop
  endfacet
  facet normal 0 0 -1
    outer loop
      vertex -1 -7.93287 0
      vertex 1.04529 -9.94522 0
      vertex 1 -9.94522 0
    endloop
  endfacet
  facet normal 0 0 -1
    outer loop
      vertex -7.76753 -1.91452 0
      vertex -9.8949 -1 0
      vertex -7.87858 -1 0
    endloop
  endfacet
  facet normal 0 0 -1
    outer loop
      vertex 1 -10 0
      vertex -1 -9.94522 0
      vertex -2.83684 -7.48013 0
    endloop
  endfacet
  facet normal 0 0 -1
    outer loop
      vertex 4.54452 -6.58387 0
      vertex 6.69131 -7.43145 0
      vertex 2.83684 -7.48013 0
    endloop
  endfacet
  facet normal 0 0 -1
    outer loop
      vertex 3.09017 -9.51056 0
      vertex 1.04529 -9.94522 0
      vertex -1 -7.93287 0
    endloop
  endfacet
  facet normal 0 0 -1
    outer loop
      vertex 1 -1 0
      vertex -1 -1 0
      vertex 10 1 0
    endloop
  endfacet
  facet normal 0 0 -1
    outer loop
      vertex -7.87858 1 0
      vertex -9.8949 -1 0
      vertex -7.76753 1.91452 0
    endloop
  endfacet
  facet normal 0 0 -1
    outer loop
      vertex -1 1 0
      vertex -9.8949 -1 0
      vertex -7.87858 1 0
    endloop
  endfacet
  facet normal 0 0 -1
    outer loop
      vertex -1 7.93287 0
      vertex 1.04529 9.94522 0
      vertex 1 7.93287 0
    endloop
  endfacet
  facet normal 0 0 -1
    outer loop
      vertex 7.87858 1 0
      vertex -9.8949 -1 0
      vertex 1 1 0
    endloop
  endfacet
  facet normal 0 0 -1
    outer loop
      vertex -1 9.94522 0
      vertex 1 10 0
      vertex -2.83684 7.48013 0
    endloop
  endfacet
  facet normal 0 0 -1
    outer loop
      vertex 1 1 0
      vertex -1 7.93287 0
      vertex 1 7.93287 0
    endloop
  endfacet
  facet normal 0 0 -1
    outer loop
      vertex -5.98809 5.30498 0
      vertex -3.09017 9.51056 0
      vertex -4.54452 6.58387 0
    endloop
  endfacet
  facet normal 0 0 -1
    outer loop
      vertex -7.08365 3.71778 0
      vertex -5 8.66025 0
      vertex -5.98809 5.30498 0
    endloop
  endfacet
  facet normal 0 0 -1
    outer loop
      vertex -9.8949 -1 0
      vertex -5 8.66025 0
      vertex -7.08365 3.71778 0
    endloop
  endfacet
  facet normal 0 0 -1
    outer loop
      vertex 1 1 0
      vertex -1 1 0
      vertex -1 7.93287 0
    endloop
  endfacet
  facet normal 0 0 -1
    outer loop
      vertex 7.87858 -1 0
      vertex 1 -1 0
      vertex 10 1 0
    endloop
  endfacet
  facet normal 0 0 -1
    outer loop
      vertex 5 -8.66025 0
      vertex 3.09017 -9.51056 0
      vertex 1 -7.93287 0
    endloop
  endfacet
  facet normal 0 0 -1
    outer loop
      vertex -1 -1 0
      vertex 1 -7.93287 0
      vertex -1 -7.93287 0
    endloop
  endfacet
  facet normal 0 0 -1
    outer loop
      vertex 6.69131 -7.43145 0
      vertex 5 -8.66025 0
      vertex 2.83684 -7.48013 0
    endloop
  endfacet
  facet normal 0 0 -1
    outer loop
      vertex 8.09017 -5.87785 0
      vertex 6.69131 -7.43145 0
      vertex 4.54452 -6.58387 0
    endloop
  endfacet
  facet normal 0 0 -1
    outer loop
      vertex -4.54452 6.58387 0
      vertex -1 9.94522 0
      vertex -2.83684 7.48013 0
    endloop
  endfacet
  facet normal 0 0 -1
    outer loop
      vertex 9.13546 -4.06737 0
      vertex 8.09017 -5.87785 0
      vertex 5.98809 -5.30498 0
    endloop
  endfacet
  facet normal 0 0 -1
    outer loop
      vertex 9.78148 -2.07912 0
      vertex 9.13546 -4.06737 0
      vertex 7.08365 -3.71778 0
    endloop
  endfacet
  facet normal 0 0 -1
    outer loop
      vertex -2.83684 -7.48013 0
      vertex -1.04529 -9.94522 0
      vertex -4.54452 -6.58387 0
    endloop
  endfacet
  facet normal 0 0 -1
    outer loop
      vertex 7.08365 3.71778 0
      vertex 9.13546 4.06737 0
      vertex 7.76753 1.91452 0
    endloop
  endfacet
  facet normal 0 0 -1
    outer loop
      vertex -7.76753 1.91452 0
      vertex -9.8949 -1 0
      vertex -7.08365 3.71778 0
    endloop
  endfacet
  facet normal 0 0 -1
    outer loop
      vertex 9.8949 -1 0
      vertex 9.78148 -2.07912 0
      vertex 7.87858 -1 0
    endloop
  endfacet
  facet normal 0 0 -1
    outer loop
      vertex 9.8949 -1 0
      vertex 7.87858 -1 0
      vertex 10 1 0
    endloop
  endfacet
  facet normal 0 0 -1
    outer loop
      vertex -2.83684 7.48013 0
      vertex 1 9.94522 0
      vertex -1 7.93287 0
    endloop
  endfacet
  facet normal 0 0 -1
    outer loop
      vertex -9.8949 -1 0
      vertex -1 1 0
      vertex 1 1 0
    endloop
  endfacet
  facet normal 0 0 -1
    outer loop
      vertex 7.76753 1.91452 0
      vertex 9.78148 2.07912 0
      vertex 7.87858 1 0
    endloop
  endfacet
  facet normal 0 0 -1
    outer loop
      vertex -9.8949 -1 0
      vertex 7.87858 1 0
      vertex 9.8949 1 0
    endloop
  endfacet
  facet normal 0 0 -1
    outer loop
      vertex 1 7.93287 0
      vertex 3.09017 9.51056 0
      vertex 2.83684 7.48013 0
    endloop
  endfacet
  facet normal 0 0 -1
    outer loop
      vertex 2.83684 7.48013 0
      vertex 5 8.66025 0
      vertex 4.54452 6.58387 0
    endloop
  endfacet
  facet normal 0 0 -1
    outer loop
      vertex 4.54452 6.58387 0
      vertex 6.69131 7.43145 0
      vertex 5.98809 5.30498 0
    endloop
  endfacet
  facet normal 0 0 -1
    outer loop
      vertex 5.98809 5.30498 0
      vertex 8.09017 5.87785 0
      vertex 7.08365 3.71778 0
    endloop
  endfacet
  facet normal 0 0 -1
    outer loop
      vertex 7.76753 -1.91452 0
      vertex 9.78148 -2.07912 0
      vertex 7.08365 -3.71778 0
    endloop
  endfacet
  facet normal 0 0 -1
    outer loop
      vertex -7.08365 -3.71778 0
      vertex -9.8949 -1 0
      vertex -7.76753 -1.91452 0
    endloop
  endfacet
  facet normal 0 0 -1
    outer loop
      vertex 7.87858 -1 0
      vertex 9.78148 -2.07912 0
      vertex 7.76753 -1.91452 0
    endloop
  endfacet
  facet normal 0 0 -1
    outer loop
      vertex 2.83684 -7.48013 0
      vertex 5 -8.66025 0
      vertex 1 -7.93287 0
    endloop
  endfacet
  facet normal 0 0 -1
    outer loop
      vertex -1 -7.93287 0
      vertex 1 -10 0
      vertex -2.83684 -7.48013 0
    endloop
  endfacet
  facet normal 0 0 -1
    outer loop
      vertex -1 -7.93287 0
      vertex 1 -9.94522 0
      vertex 1 -10 0
    endloop
  endfacet
  facet normal 0 0 -1
    outer loop
      vertex -5.98809 -5.30498 0
      vertex -9.8949 -1 0
      vertex -7.08365 -3.71778 0
    endloop
  endfacet
  facet normal 0 0 -1
    outer loop
      vertex -4.54452 6.58387 0
      vertex -1.04529 9.94522 0
      vertex -1 9.94522 0
    endloop
  endfacet
  facet normal 0 0 -1
    outer loop
      vertex 7.08365 -3.71778 0
      vertex 9.13546 -4.06737 0
      vertex 5.98809 -5.30498 0
    endloop
  endfacet
  facet normal 0 0 -1
    outer loop
      vertex -2.83684 -7.48013 0
      vertex -1 -9.94522 0
      vertex -1.04529 -9.94522 0
    endloop
  endfacet
  facet normal 0 0 -1
    outer loop
      vertex -9.8949 -1 0
      vertex -5.98809 -5.30498 0
      vertex -3.09017 -9.51056 0
    endloop
  endfacet
  facet normal 0 0 -1
    outer loop
      vertex -9.8949 -1 0
      vertex -3.09017 -9.51056 0
      vertex -5 -8.66025 0
    endloop
  endfacet
  facet normal 0 0 -1
    outer loop
      vertex -9.8949 -1 0
      vertex -5 -8.66025 0
      vertex -6.69131 -7.43145 0
    endloop
  endfacet
  facet normal 0 0 -1
    outer loop
      vertex -9.8949 -1 0
      vertex -6.69131 -7.43145 0
      vertex -8.09017 -5.87785 0
    endloop
  endfacet
  facet normal 0 0 -1
    outer loop
      vertex -9.8949 -1 0
      vertex -8.09017 -5.87785 0
      vertex -9.13546 -4.06737 0
    endloop
  endfacet
  facet normal 0 0 -1
    outer loop
      vertex -9.8949 -1 0
      vertex -9.13546 -4.06737 0
      vertex -9.78148 -2.07912 0
    endloop
  endfacet
  facet normal 0 1 0
    outer loop
      vertex -10 1 0
      vertex -10 1 2
      vertex -9.8949 1 0
    endloop
  endfacet
  facet normal 0 1 0
    outer loop
      vertex -9.8949 1 0
      vertex -10 1 2
      vertex -9.8949 1 2
    endloop
  endfacet
  facet normal 0 0 1
    outer loop
      vertex -10 1 2
      vertex -10 0 2
      vertex -9.8949 1 2
    endloop
  endfacet
  facet normal 0 0 1
    outer loop
      vertex -10 0 2
      vertex -10 -1 2
      vertex -9.8949 -1 2
    endloop
  endfacet
  facet normal -0.994522 0.104528 0
    outer loop
      vertex -10 0 2
      vertex -10 0 4
      vertex -9.8949 1 2
    endloop
  endfacet
  facet normal -0.994522 0.104528 0
    outer loop
      vertex -9.8949 1 2
      vertex -10 0 4
      vertex -9.78148 2.07912 4
    endloop
  endfacet
  facet normal -0.994522 0.104528 0
    outer loop
      vertex -9.8949 1 2
      vertex -9.78148 2.07912 4
      vertex -9.78148 2.07912 0
    endloop
  endfacet
  facet normal -0.994522 0.104528 0
    outer loop
      vertex -9.8949 1 2
      vertex -9.78148 2.07912 0
      vertex -9.8949 1 0
    endloop
  endfacet
  facet normal -0.994522 -0.104528 0
    outer loop
      vertex -10 0 2
      vertex -9.8949 -1 2
      vertex -10 0 4
    endloop
  endfacet
  facet normal -0.994522 -0.104528 0
    outer loop
      vertex -9.78148 -2.07912 0
      vertex -9.8949 -1 2
      vertex -9.8949 -1 0
    endloop
  endfacet
  facet normal -0.994522 -0.104528 0
    outer loop
      vertex -10 0 4
      vertex -9.8949 -1 2
      vertex -9.78148 -2.07912 0
    endloop
  endfacet
  facet normal -0.994522 -0.104528 0
    outer loop
      vertex -10 0 4
      vertex -9.78148 -2.07912 0
      vertex -9.78148 -2.07912 4
    endloop
  endfacet
  facet normal -0.951057 -0.309017 0
    outer loop
      vertex -9.78148 -2.07912 0
      vertex -9.13546 -4.06737 0
      vertex -9.78148 -2.07912 4
    endloop
  endfacet
  facet normal -0.951057 -0.309017 0
    outer loop
      vertex -9.78148 -2.07912 4
      vertex -9.13546 -4.06737 0
      vertex -9.13546 -4.06737 4
    endloop
  endfacet
  facet normal -0.866025 -0.5 0
    outer loop
      vertex -9.13546 -4.06737 0
      vertex -8.09017 -5.87785 0
      vertex -9.13546 -4.06737 4
    endloop
  endfacet
  facet normal -0.866025 -0.5 0
    outer loop
      vertex -9.13546 -4.06737 4
      vertex -8.09017 -5.87785 0
      vertex -8.09017 -5.87785 4
    endloop
  endfacet
  facet normal -0.743145 -0.669131 0
    outer loop
      vertex -8.09017 -5.87785 0
      vertex -6.69131 -7.43145 0
      vertex -8.09017 -5.87785 4
    endloop
  endfacet
  facet normal -0.743145 -0.669131 0
    outer loop
      vertex -8.09017 -5.87785 4
      vertex -6.69131 -7.43145 0
      vertex -6.69131 -7.43145 4
    endloop
  endfacet
  facet normal -0.587785 -0.809017 0
    outer loop
      vertex -6.69131 -7.43145 4
      vertex -6.69131 -7.43145 0
      vertex -5 -8.66025 0
    endloop
  endfacet
  facet normal -0.587785 -0.809017 0
    outer loop
      vertex -5 -8.66025 4
      vertex -6.69131 -7.43145 4
      vertex -5 -8.66025 0
    endloop
  endfacet
  facet normal -0.406737 -0.913545 0
    outer loop
      vertex -5 -8.66025 4
      vertex -5 -8.66025 0
      vertex -3.09017 -9.51056 0
    endloop
  endfacet
  facet normal -0.406737 -0.913545 0
    outer loop
      vertex -3.09017 -9.51056 4
      vertex -5 -8.66025 4
      vertex -3.09017 -9.51056 0
    endloop
  endfacet
  facet normal -0.207912 -0.978148 0
    outer loop
      vertex -3.09017 -9.51056 4
      vertex -3.09017 -9.51056 0
      vertex -1.04529 -9.94522 0
    endloop
  endfacet
  facet normal -0.207912 -0.978148 0
    outer loop
      vertex -1.04529 -9.94522 4
      vertex -3.09017 -9.51056 4
      vertex -1.04529 -9.94522 0
    endloop
  endfacet
  facet normal 0 -1 0
    outer loop
      vertex -1.04529 -9.94522 4
      vertex -1.04529 -9.94522 0
      vertex -1 -9.94522 0
    endloop
  endfacet
  facet normal 0 -1 0
    outer loop
      vertex 1 -9.94522 2
      vertex -1.04529 -9.94522 4
      vertex -1 -9.94522 2
    endloop
  endfacet
  facet normal 0 -1 0
    outer loop
      vertex -1 -9.94522 2
      vertex -1.04529 -9.94522 4
      vertex -1 -9.94522 0
    endloop
  endfacet
  facet normal 0 -1 0
    outer loop
      vertex 1.04529 -9.94522 4
      vertex -1.04529 -9.94522 4
      vertex 1 -9.94522 2
    endloop
  endfacet
  facet normal 0 -1 0
    outer loop
      vertex 1.04529 -9.94522 0
      vertex 1 -9.94522 2
      vertex 1 -9.94522 0
    endloop
  endfacet
  facet normal 0 -1 0
    outer loop
      vertex 1.04529 -9.94522 4
      vertex 1 -9.94522 2
      vertex 1.04529 -9.94522 0
    endloop
  endfacet
  facet normal -1 0 0
    outer loop
      vertex -1 -10 0
      vertex -1 -10 2
      vertex -1 -9.94522 0
    endloop
  endfacet
  facet normal -1 0 0
    outer loop
      vertex -1 -9.94522 0
      vertex -1 -10 2
      vertex -1 -9.94522 2
    endloop
  endfacet
  facet normal 0 -1 0
    outer loop
      vertex -1 -10 2
      vertex -1 -10 0
      vertex 1 -10 0
    endloop
  endfacet
  facet normal 0 -1 0
    outer loop
      vertex 1 -10 2
      vertex -1 -10 2
      vertex 1 -10 0
    endloop
  endfacet
  facet normal 1 0 0
    outer loop
      vertex 1 -10 2
      vertex 1 -10 0
      vertex 1 -9.94522 0
    endloop
  endfacet
  facet normal 1 0 0
    outer loop
      vertex 1 -9.94522 2
      vertex 1 -10 2
      vertex 1 -9.94522 0
    endloop
  endfacet
  facet normal 0.207912 -0.978148 0
    outer loop
      vertex 1.04529 -9.94522 4
      vertex 1.04529 -9.94522 0
      vertex 3.09017 -9.51056 0
    endloop
  endfacet
  facet normal 0.207912 -0.978148 0
    outer loop
      vertex 3.09017 -9.51056 4
      vertex 1.04529 -9.94522 4
      vertex 3.09017 -9.51056 0
    endloop
  endfacet
  facet normal 0.406737 -0.913545 0
    outer loop
      vertex 3.09017 -9.51056 4
      vertex 3.09017 -9.51056 0
      vertex 5 -8.66025 0
    endloop
  endfacet
  facet normal 0.406737 -0.913545 0
    outer loop
      vertex 5 -8.66025 4
      vertex 3.09017 -9.51056 4
      vertex 5 -8.66025 0
    endloop
  endfacet
  facet normal 0.587785 -0.809017 0
    outer loop
      vertex 5 -8.66025 4
      vertex 5 -8.66025 0
      vertex 6.69131 -7.43145 0
    endloop
  endfacet
  facet normal 0.587785 -0.809017 0
    outer loop
      vertex 6.69131 -7.43145 4
      vertex 5 -8.66025 4
      vertex 6.69131 -7.43145 0
    endloop
  endfacet
  facet normal 0.743145 -0.669131 0
    outer loop
      vertex 6.69131 -7.43145 4
      vertex 6.69131 -7.43145 0
      vertex 8.09017 -5.87785 0
    endloop
  endfacet
  facet normal 0.743145 -0.669131 0
    outer loop
      vertex 8.09017 -5.87785 4
      vertex 6.69131 -7.43145 4
      vertex 8.09017 -5.87785 0
    endloop
  endfacet
  facet normal 0.866025 -0.5 0
    outer loop
      vertex 8.09017 -5.87785 4
      vertex 8.09017 -5.87785 0
      vertex 9.13546 -4.06737 0
    endloop
  endfacet
  facet normal 0.866025 -0.5 0
    outer loop
      vertex 9.13546 -4.06737 4
      vertex 8.09017 -5.87785 4
      vertex 9.13546 -4.06737 0
    endloop
  endfacet
  facet normal 0.951057 -0.309017 0
    outer loop
      vertex 9.13546 -4.06737 4
      vertex 9.13546 -4.06737 0
      vertex 9.78148 -2.07912 0
    endloop
  endfacet
  facet normal 0.951057 -0.309017 0
    outer loop
      vertex 9.78148 -2.07912 4
      vertex 9.13546 -4.06737 4
      vertex 9.78148 -2.07912 0
    endloop
  endfacet
  facet normal 0.994522 -0.104528 0
    outer loop
      vertex 9.78148 -2.07912 4
      vertex 9.78148 -2.07912 0
      vertex 9.8949 -1 0
    endloop
  endfacet
  facet normal 0.994522 -0.104528 0
    outer loop
      vertex 10 0 2
      vertex 9.78148 -2.07912 4
      vertex 9.8949 -1 2
    endloop
  endfacet
  facet normal 0.994522 -0.104528 0
    outer loop
      vertex 9.8949 -1 2
      vertex 9.78148 -2.07912 4
      vertex 9.8949 -1 0
    endloop
  endfacet
  facet normal 0.994522 -0.104528 0
    outer loop
      vertex 10 0 4
      vertex 9.78148 -2.07912 4
      vertex 10 0 2
    endloop
  endfacet
  facet normal 0 -1 0
    outer loop
      vertex 9.8949 -1 2
      vertex 9.8949 -1 0
      vertex 10 -1 0
    endloop
  endfacet
  facet normal 0 -1 0
    outer loop
      vertex 10 -1 2
      vertex 9.8949 -1 2
      vertex 10 -1 0
    endloop
  endfacet
  facet normal 1 0 0
    outer loop
      vertex 10 -1 2
      vertex 10 -1 0
      vertex 10 1 0
    endloop
  endfacet
  facet normal 1 0 0
    outer loop
      vertex 10 0 2
      vertex 10 -1 2
      vertex 10 1 0
    endloop
  endfacet
  facet normal 1 0 0
    outer loop
      vertex 10 1 2
      vertex 10 0 2
      vertex 10 1 0
    endloop
  endfacet
  facet normal 0 1 0
    outer loop
      vertex 9.8949 1 0
      vertex 9.8949 1 2
      vertex 10 1 0
    endloop
  endfacet
  facet normal 0 1 0
    outer loop
      vertex 10 1 0
      vertex 9.8949 1 2
      vertex 10 1 2
    endloop
  endfacet
  facet normal 0.994522 0.104528 0
    outer loop
      vertex 9.8949 1 0
      vertex 9.78148 2.07912 0
      vertex 9.78148 2.07912 4
    endloop
  endfacet
  facet normal 0.994522 0.104528 0
    outer loop
      vertex 9.8949 1 2
      vertex 9.8949 1 0
      vertex 9.78148 2.07912 4
    endloop
  endfacet
  facet normal 0.994522 0.104528 0
    outer loop
      vertex 10 0 4
      vertex 9.8949 1 2
      vertex 9.78148 2.07912 4
    endloop
  endfacet
  facet normal 0.994522 0.104528 0
    outer loop
      vertex 10 0 2
      vertex 9.8949 1 2
      vertex 10 0 4
    endloop
  endfacet
  facet normal 0.951057 0.309017 0
    outer loop
      vertex 9.78148 2.07912 0
      vertex 9.13546 4.06737 0
      vertex 9.13546 4.06737 4
    endloop
  endfacet
  facet normal 0.951057 0.309017 0
    outer loop
      vertex 9.78148 2.07912 4
      vertex 9.78148 2.07912 0
      vertex 9.13546 4.06737 4
    endloop
  endfacet
  facet normal 0.866025 0.5 0
    outer loop
      vertex 9.13546 4.06737 0
      vertex 8.09017 5.87785 0
      vertex 8.09017 5.87785 4
    endloop
  endfacet
  facet normal 0.866025 0.5 0
    outer loop
      vertex 9.13546 4.06737 4
      vertex 9.13546 4.06737 0
      vertex 8.09017 5.87785 4
    endloop
  endfacet
  facet normal 0.743145 0.669131 0
    outer loop
      vertex 8.09017 5.87785 0
      vertex 6.69131 7.43145 0
      vertex 6.69131 7.43145 4
    endloop
  endfacet
  facet normal 0.743145 0.669131 0
    outer loop
      vertex 8.09017 5.87785 4
      vertex 8.09017 5.87785 0
      vertex 6.69131 7.43145 4
    endloop
  endfacet
  facet normal 0.587785 0.809017 0
    outer loop
      vertex 5 8.66025 0
      vertex 5 8.66025 4
      vertex 6.69131 7.43145 0
    endloop
  endfacet
  facet normal 0.587785 0.809017 0
    outer loop
      vertex 6.69131 7.43145 0
      vertex 5 8.66025 4
      vertex 6.69131 7.43145 4
    endloop
  endfacet
  facet normal 0.406737 0.913545 0
    outer loop
      vertex 3.09017 9.51056 0
      vertex 3.09017 9.51056 4
      vertex 5 8.66025 0
    endloop
  endfacet
  facet normal 0.406737 0.913545 0
    outer loop
      vertex 5 8.66025 0
      vertex 3.09017 9.51056 4
      vertex 5 8.66025 4
    endloop
  endfacet
  facet normal 0.207912 0.978148 0
    outer loop
      vertex 1.04529 9.94522 0
      vertex 1.04529 9.94522 4
      vertex 3.09017 9.51056 0
    endloop
  endfacet
  facet normal 0.207912 0.978148 0
    outer loop
      vertex 3.09017 9.51056 0
      vertex 1.04529 9.94522 4
      vertex 3.09017 9.51056 4
    endloop
  endfacet
  facet normal 0 1 0
    outer loop
      vertex -1.04529 9.94522 0
      vertex -1.04529 9.94522 4
      vertex -1 9.94522 0
    endloop
  endfacet
  facet normal 0 1 0
    outer loop
      vertex -1 9.94522 2
      vertex -1.04529 9.94522 4
      vertex 1.04529 9.94522 4
    endloop
  endfacet
  facet normal 0 1 0
    outer loop
      vertex 1 9.94522 0
      vertex 1.04529 9.94522 4
      vertex 1.04529 9.94522 0
    endloop
  endfacet
  facet normal 0 1 0
    outer loop
      vertex 1 9.94522 2
      vertex 1.04529 9.94522 4
      vertex 1 9.94522 0
    endloop
  endfacet
  facet normal 0 1 0
    outer loop
      vertex -1 9.94522 0
      vertex -1.04529 9.94522 4
      vertex -1 9.94522 2
    endloop
  endfacet
  facet normal 0 1 0
    outer loop
      vertex -1 9.94522 2
      vertex 1.04529 9.94522 4
      vertex 1 9.94522 2
    endloop
  endfacet
  facet normal 1 0 0
    outer loop
      vertex 1 9.94522 2
      vertex 1 9.94522 0
      vertex 1 10 0
    endloop
  endfacet
  facet normal 1 0 0
    outer loop
      vertex 1 10 2
      vertex 1 9.94522 2
      vertex 1 10 0
    endloop
  endfacet
  facet normal 0 1 0
    outer loop
      vertex -1 10 0
      vertex -1 10 2
      vertex 1 10 0
    endloop
  endfacet
  facet normal 0 1 0
    outer loop
      vertex 1 10 0
      vertex -1 10 2
      vertex 1 10 2
    endloop
  endfacet
  facet normal -1 0 0
    outer loop
      vertex -1 9.94522 0
      vertex -1 9.94522 2
      vertex -1 10 0
    endloop
  endfacet
  facet normal -1 0 0
    outer loop
      vertex -1 10 0
      vertex -1 9.94522 2
      vertex -1 10 2
    endloop
  endfacet
  facet normal -0.207912 0.978148 0
    outer loop
      vertex -3.09017 9.51056 0
      vertex -3.09017 9.51056 4
      vertex -1.04529 9.94522 0
    endloop
  endfacet
  facet normal -0.207912 0.978148 0
    outer loop
      vertex -1.04529 9.94522 0
      vertex -3.09017 9.51056 4
      vertex -1.04529 9.94522 4
    endloop
  endfacet
  facet normal -0.406737 0.913545 0
    outer loop
      vertex -5 8.66025 0
      vertex -5 8.66025 4
      vertex -3.09017 9.51056 0
    endloop
  endfacet
  facet normal -0.406737 0.913545 0
    outer loop
      vertex -3.09017 9.51056 0
      vertex -5 8.66025 4
      vertex -3.09017 9.51056 4
    endloop
  endfacet
  facet normal -0.587785 0.809017 0
    outer loop
      vertex -6.69131 7.43145 0
      vertex -6.69131 7.43145 4
      vertex -5 8.66025 0
    endloop
  endfacet
  facet normal -0.587785 0.809017 0
    outer loop
      vertex -5 8.66025 0
      vertex -6.69131 7.43145 4
      vertex -5 8.66025 4
    endloop
  endfacet
  facet normal -0.743145 0.669131 0
    outer loop
      vertex -8.09017 5.87785 0
      vertex -8.09017 5.87785 4
      vertex -6.69131 7.43145 0
    endloop
  endfacet
  facet normal -0.743145 0.669131 0
    outer loop
      vertex -6.69131 7.43145 0
      vertex -8.09017 5.87785 4
      vertex -6.69131 7.43145 4
    endloop
  endfacet
  facet normal -0.866025 0.5 0
    outer loop
      vertex -9.13546 4.06737 0
      vertex -9.13546 4.06737 4
      vertex -8.09017 5.87785 0
    endloop
  endfacet
  facet normal -0.866025 0.5 0
    outer loop
      vertex -8.09017 5.87785 0
      vertex -9.13546 4.06737 4
      vertex -8.09017 5.87785 4
    endloop
  endfacet
  facet normal -0.951057 0.309017 0
    outer loop
      vertex -9.78148 2.07912 0
      vertex -9.78148 2.07912 4
      vertex -9.13546 4.06737 0
    endloop
  endfacet
  facet normal -0.951057 0.309017 0
    outer loop
      vertex -9.13546 4.06737 0
      vertex -9.78148 2.07912 4
      vertex -9.13546 4.06737 4
    endloop
  endfacet
  facet normal 0 -1 0
    outer loop
      vertex -7.87858 -1 2
      vertex -7.87858 -1 0
      vertex -1 -1 0
    endloop
  endfacet
  facet normal 0 -1 0
    outer loop
      vertex -1 -1 2
      vertex -7.87858 -1 2
      vertex -1 -1 0
    endloop
  endfacet
  facet normal 0.992709 0.120536 0
    outer loop
      vertex -7.87858 -1 2
      vertex -7.76753 -1.91452 4
      vertex -7.76753 -1.91452 0
    endloop
  endfacet
  facet normal 0.992709 0.120536 0
    outer loop
      vertex -7.87858 -1 2
      vertex -8 0 2
      vertex -8 0 4
    endloop
  endfacet
  facet normal 0.992709 0.120536 0
    outer loop
      vertex -8 0 4
      vertex -7.76753 -1.91452 4
      vertex -7.87858 -1 2
    endloop
  endfacet
  facet normal 0.992709 0.120536 0
    outer loop
      vertex -7.87858 -1 0
      vertex -7.87858 -1 2
      vertex -7.76753 -1.91452 0
    endloop
  endfacet
  facet normal -1 0 0
    outer loop
      vertex -1 -7.93287 0
      vertex -1 -7.93287 2
      vertex -1 -1 0
    endloop
  endfacet
  facet normal -1 0 0
    outer loop
      vertex -1 -1 0
      vertex -1 -7.93287 2
      vertex -1 -1 2
    endloop
  endfacet
  facet normal 0.239316 0.970942 0
    outer loop
      vertex -0.964293 -7.94167 4
      vertex -0.964293 -7.94167 2
      vertex -2.83684 -7.48013 4
    endloop
  endfacet
  facet normal 0.239316 0.970942 0
    outer loop
      vertex -2.83684 -7.48013 4
      vertex -0.964293 -7.94167 2
      vertex -1 -7.93287 2
    endloop
  endfacet
  facet normal 0.239316 0.970942 0
    outer loop
      vertex -2.83684 -7.48013 4
      vertex -1 -7.93287 2
      vertex -1 -7.93287 0
    endloop
  endfacet
  facet normal 0.239316 0.970942 0
    outer loop
      vertex -2.83684 -7.48013 4
      vertex -1 -7.93287 0
      vertex -2.83684 -7.48013 0
    endloop
  endfacet
  facet normal 0.464723 0.885456 0
    outer loop
      vertex -2.83684 -7.48013 4
      vertex -2.83684 -7.48013 0
      vertex -4.54452 -6.58387 4
    endloop
  endfacet
  facet normal 0.464723 0.885456 0
    outer loop
      vertex -4.54452 -6.58387 4
      vertex -2.83684 -7.48013 0
      vertex -4.54452 -6.58387 0
    endloop
  endfacet
  facet normal 0.663123 0.748511 0
    outer loop
      vertex -4.54452 -6.58387 4
      vertex -4.54452 -6.58387 0
      vertex -5.98809 -5.30498 4
    endloop
  endfacet
  facet normal 0.663123 0.748511 0
    outer loop
      vertex -5.98809 -5.30498 4
      vertex -4.54452 -6.58387 0
      vertex -5.98809 -5.30498 0
    endloop
  endfacet
  facet normal 0.822984 0.568065 0
    outer loop
      vertex -7.08365 -3.71778 4
      vertex -5.98809 -5.30498 4
      vertex -5.98809 -5.30498 0
    endloop
  endfacet
  facet normal 0.822984 0.568065 0
    outer loop
      vertex -7.08365 -3.71778 0
      vertex -7.08365 -3.71778 4
      vertex -5.98809 -5.30498 0
    endloop
  endfacet
  facet normal 0.935016 0.354605 0
    outer loop
      vertex -7.76753 -1.91452 4
      vertex -7.08365 -3.71778 4
      vertex -7.08365 -3.71778 0
    endloop
  endfacet
  facet normal 0.935016 0.354605 0
    outer loop
      vertex -7.76753 -1.91452 0
      vertex -7.76753 -1.91452 4
      vertex -7.08365 -3.71778 0
    endloop
  endfacet
  facet normal 0.935016 -0.354605 0
    outer loop
      vertex -7.08365 3.71778 0
      vertex -7.08365 3.71778 4
      vertex -7.76753 1.91452 4
    endloop
  endfacet
  facet normal 0.935016 -0.354605 0
    outer loop
      vertex -7.76753 1.91452 0
      vertex -7.08365 3.71778 0
      vertex -7.76753 1.91452 4
    endloop
  endfacet
  facet normal 0.992709 -0.120536 0
    outer loop
      vertex -7.87858 1 2
      vertex -7.87858 1 0
      vertex -7.76753 1.91452 0
    endloop
  endfacet
  facet normal 0.992709 -0.120536 0
    outer loop
      vertex -8 0 4
      vertex -7.87858 1 2
      vertex -7.76753 1.91452 4
    endloop
  endfacet
  facet normal 0.992709 -0.120536 0
    outer loop
      vertex -7.76753 1.91452 4
      vertex -7.87858 1 2
      vertex -7.76753 1.91452 0
    endloop
  endfacet
  facet normal 0.992709 -0.120536 0
    outer loop
      vertex -8 0 2
      vertex -7.87858 1 2
      vertex -8 0 4
    endloop
  endfacet
  facet normal 0.822984 -0.568065 0
    outer loop
      vertex -5.98809 5.30498 0
      vertex -5.98809 5.30498 4
      vertex -7.08365 3.71778 4
    endloop
  endfacet
  facet normal 0.822984 -0.568065 0
    outer loop
      vertex -7.08365 3.71778 0
      vertex -5.98809 5.30498 0
      vertex -7.08365 3.71778 4
    endloop
  endfacet
  facet normal 0.663123 -0.748511 0
    outer loop
      vertex -4.54452 6.58387 0
      vertex -4.54452 6.58387 4
      vertex -5.98809 5.30498 4
    endloop
  endfacet
  facet normal 0.663123 -0.748511 0
    outer loop
      vertex -5.98809 5.30498 0
      vertex -4.54452 6.58387 0
      vertex -5.98809 5.30498 4
    endloop
  endfacet
  facet normal 0.464723 -0.885456 0
    outer loop
      vertex -2.83684 7.48013 0
      vertex -2.83684 7.48013 4
      vertex -4.54452 6.58387 4
    endloop
  endfacet
  facet normal 0.464723 -0.885456 0
    outer loop
      vertex -4.54452 6.58387 0
      vertex -2.83684 7.48013 0
      vertex -4.54452 6.58387 4
    endloop
  endfacet
  facet normal 0.239316 -0.970942 0
    outer loop
      vertex -0.964293 7.94167 4
      vertex -1 7.93287 2
      vertex -0.964293 7.94167 2
    endloop
  endfacet
  facet normal 0.239316 -0.970942 0
    outer loop
      vertex -2.83684 7.48013 4
      vertex -1 7.93287 2
      vertex -0.964293 7.94167 4
    endloop
  endfacet
  facet normal 0.239316 -0.970942 0
    outer loop
      vertex -1 7.93287 0
      vertex -1 7.93287 2
      vertex -2.83684 7.48013 4
    endloop
  endfacet
  facet normal 0.239316 -0.970942 0
    outer loop
      vertex -2.83684 7.48013 0
      vertex -1 7.93287 0
      vertex -2.83684 7.48013 4
    endloop
  endfacet
  facet normal -1 0 0
    outer loop
      vertex -1 1 0
      vertex -1 1 2
      vertex -1 7.93287 0
    endloop
  endfacet
  facet normal -1 0 0
    outer loop
      vertex -1 7.93287 0
      vertex -1 1 2
      vertex -1 7.93287 2
    endloop
  endfacet
  facet normal 0 1 0
    outer loop
      vertex -7.87858 1 0
      vertex -7.87858 1 2
      vertex -1 1 0
    endloop
  endfacet
  facet normal 0 1 0
    outer loop
      vertex -1 1 0
      vertex -7.87858 1 2
      vertex -1 1 2
    endloop
  endfacet
  facet normal 1 0 0
    outer loop
      vertex 1 -7.93287 2
      vertex 1 -7.93287 0
      vertex 1 -1 0
    endloop
  endfacet
  facet normal 1 0 0
    outer loop
      vertex 1 -1 2
      vertex 1 -7.93287 2
      vertex 1 -1 0
    endloop
  endfacet
  facet normal 0 -1 0
    outer loop
      vertex 1 -1 2
      vertex 1 -1 0
      vertex 7.87858 -1 0
    endloop
  endfacet
  facet normal 0 -1 0
    outer loop
      vertex 7.87858 -1 2
      vertex 1 -1 2
      vertex 7.87858 -1 0
    endloop
  endfacet
  facet normal -0.992709 0.120536 0
    outer loop
      vertex 8 0 4
      vertex 8 0 2
      vertex 7.76753 -1.91452 4
    endloop
  endfacet
  facet normal -0.992709 0.120536 0
    outer loop
      vertex 7.76753 -1.91452 4
      vertex 8 0 2
      vertex 7.87858 -1 2
    endloop
  endfacet
  facet normal -0.992709 0.120536 0
    outer loop
      vertex 7.76753 -1.91452 4
      vertex 7.87858 -1 2
      vertex 7.87858 -1 0
    endloop
  endfacet
  facet normal -0.992709 0.120536 0
    outer loop
      vertex 7.76753 -1.91452 4
      vertex 7.87858 -1 0
      vertex 7.76753 -1.91452 0
    endloop
  endfacet
  facet normal -0.935016 0.354605 0
    outer loop
      vertex 7.76753 -1.91452 4
      vertex 7.76753 -1.91452 0
      vertex 7.08365 -3.71778 4
    endloop
  endfacet
  facet normal -0.935016 0.354605 0
    outer loop
      vertex 7.08365 -3.71778 4
      vertex 7.76753 -1.91452 0
      vertex 7.08365 -3.71778 0
    endloop
  endfacet
  facet normal -0.822984 0.568065 0
    outer loop
      vertex 7.08365 -3.71778 4
      vertex 7.08365 -3.71778 0
      vertex 5.98809 -5.30498 4
    endloop
  endfacet
  facet normal -0.822984 0.568065 0
    outer loop
      vertex 5.98809 -5.30498 4
      vertex 7.08365 -3.71778 0
      vertex 5.98809 -5.30498 0
    endloop
  endfacet
  facet normal -0.663123 0.748511 0
    outer loop
      vertex 5.98809 -5.30498 4
      vertex 5.98809 -5.30498 0
      vertex 4.54452 -6.58387 4
    endloop
  endfacet
  facet normal -0.663123 0.748511 0
    outer loop
      vertex 4.54452 -6.58387 4
      vertex 5.98809 -5.30498 0
      vertex 4.54452 -6.58387 0
    endloop
  endfacet
  facet normal -0.464723 0.885456 0
    outer loop
      vertex 4.54452 -6.58387 4
      vertex 4.54452 -6.58387 0
      vertex 2.83684 -7.48013 4
    endloop
  endfacet
  facet normal -0.464723 0.885456 0
    outer loop
      vertex 2.83684 -7.48013 4
      vertex 4.54452 -6.58387 0
      vertex 2.83684 -7.48013 0
    endloop
  endfacet
  facet normal -0.239316 0.970942 0
    outer loop
      vertex 2.83684 -7.48013 4
      vertex 2.83684 -7.48013 0
      vertex 0.964293 -7.94167 4
    endloop
  endfacet
  facet normal -0.239316 0.970942 0
    outer loop
      vertex 1 -7.93287 2
      vertex 2.83684 -7.48013 0
      vertex 1 -7.93287 0
    endloop
  endfacet
  facet normal -0.239316 0.970942 0
    outer loop
      vertex 0.964293 -7.94167 4
      vertex 2.83684 -7.48013 0
      vertex 1 -7.93287 2
    endloop
  endfacet
  facet normal -0.239316 0.970942 0
    outer loop
      vertex 0.964293 -7.94167 2
      vertex 0.964293 -7.94167 4
      vertex 1 -7.93287 2
    endloop
  endfacet
  facet normal 1 0 0
    outer loop
      vertex 1 1 2
      vertex 1 1 0
      vertex 1 7.93287 0
    endloop
  endfacet
  facet normal 1 0 0
    outer loop
      vertex 1 7.93287 2
      vertex 1 1 2
      vertex 1 7.93287 0
    endloop
  endfacet
  facet normal -0.239316 -0.970942 0
    outer loop
      vertex 1 7.93287 2
      vertex 1 7.93287 0
      vertex 2.83684 7.48013 0
    endloop
  endfacet
  facet normal -0.239316 -0.970942 0
    outer loop
      vertex 0.964293 7.94167 4
      vertex 1 7.93287 2
      vertex 2.83684 7.48013 4
    endloop
  endfacet
  facet normal -0.239316 -0.970942 0
    outer loop
      vertex 2.83684 7.48013 4
      vertex 1 7.93287 2
      vertex 2.83684 7.48013 0
    endloop
  endfacet
  facet normal -0.239316 -0.970942 0
    outer loop
      vertex 0.964293 7.94167 2
      vertex 1 7.93287 2
      vertex 0.964293 7.94167 4
    endloop
  endfacet
  facet normal -0.464723 -0.885456 0
    outer loop
      vertex 4.54452 6.58387 0
      vertex 4.54452 6.58387 4
      vertex 2.83684 7.48013 4
    endloop
  endfacet
  facet normal -0.464723 -0.885456 0
    outer loop
      vertex 2.83684 7.48013 0
      vertex 4.54452 6.58387 0
      vertex 2.83684 7.48013 4
    endloop
  endfacet
  facet normal -0.663123 -0.748511 0
    outer loop
      vertex 5.98809 5.30498 0
      vertex 5.98809 5.30498 4
      vertex 4.54452 6.58387 4
    endloop
  endfacet
  facet normal -0.663123 -0.748511 0
    outer loop
      vertex 4.54452 6.58387 0
      vertex 5.98809 5.30498 0
      vertex 4.54452 6.58387 4
    endloop
  endfacet
  facet normal -0.822984 -0.568065 0
    outer loop
      vertex 7.08365 3.71778 4
      vertex 5.98809 5.30498 4
      vertex 7.08365 3.71778 0
    endloop
  endfacet
  facet normal -0.822984 -0.568065 0
    outer loop
      vertex 7.08365 3.71778 0
      vertex 5.98809 5.30498 4
      vertex 5.98809 5.30498 0
    endloop
  endfacet
  facet normal -0.935016 -0.354605 0
    outer loop
      vertex 7.76753 1.91452 4
      vertex 7.08365 3.71778 4
      vertex 7.76753 1.91452 0
    endloop
  endfacet
  facet normal -0.935016 -0.354605 0
    outer loop
      vertex 7.76753 1.91452 0
      vertex 7.08365 3.71778 4
      vertex 7.08365 3.71778 0
    endloop
  endfacet
  facet normal -0.992709 -0.120536 0
    outer loop
      vertex 7.87858 1 2
      vertex 8 0 2
      vertex 8 0 4
    endloop
  endfacet
  facet normal -0.992709 -0.120536 0
    outer loop
      vertex 7.87858 1 2
      vertex 8 0 4
      vertex 7.76753 1.91452 4
    endloop
  endfacet
  facet normal -0.992709 -0.120536 0
    outer loop
      vertex 7.87858 1 2
      vertex 7.76753 1.91452 4
      vertex 7.87858 1 0
    endloop
  endfacet
  facet normal -0.992709 -0.120536 0
    outer loop
      vertex 7.76753 1.91452 4
      vertex 7.76753 1.91452 0
      vertex 7.87858 1 0
    endloop
  endfacet
  facet normal 0 1 0
    outer loop
      vertex 1 1 0
      vertex 1 1 2
      vertex 7.87858 1 0
    endloop
  endfacet
  facet normal 0 1 0
    outer loop
      vertex 7.87858 1 0
      vertex 1 1 2
      vertex 7.87858 1 2
    endloop
  endfacet
  facet normal 0 0 1
    outer loop
      vertex -9.78148 2.07912 4
      vertex -10 0 4
      vertex -9.78148 -2.07912 4
    endloop
  endfacet
  facet normal 0 0 1
    outer loop
      vertex -8.09017 -5.87785 4
      vertex -9.78148 2.07912 4
      vertex -9.13546 -4.06737 4
    endloop
  endfacet
  facet normal 0 0 1
    outer loop
      vertex -9.13546 -4.06737 4
      vertex -9.78148 2.07912 4
      vertex -9.78148 -2.07912 4
    endloop
  endfacet
  facet normal 0 0 1
    outer loop
      vertex -6.69131 -7.43145 4
      vertex -9.78148 2.07912 4
      vertex -8.09017 -5.87785 4
    endloop
  endfacet
  facet normal 0 0 1
    outer loop
      vertex -5 -8.66025 4
      vertex -9.78148 2.07912 4
      vertex -6.69131 -7.43145 4
    endloop
  endfacet
  facet normal 0 0 1
    outer loop
      vertex -7.08365 -3.71778 4
      vertex -9.78148 2.07912 4
      vertex -5 -8.66025 4
    endloop
  endfacet
  facet normal 0 0 1
    outer loop
      vertex 7.08365 -3.71778 4
      vertex 5.98809 -5.30498 4
      vertex 8.09017 -5.87785 4
    endloop
  endfacet
  facet normal 0 0 1
    outer loop
      vertex 7.76753 1.91452 4
      vertex 8 0 4
      vertex 10 0 4
    endloop
  endfacet
  facet normal 0 0 1
    outer loop
      vertex -2.83684 7.48013 4
      vertex -0.964293 7.94167 4
      vertex 1.04529 9.94522 4
    endloop
  endfacet
  facet normal 0 0 1
    outer loop
      vertex -0.964293 7.94167 4
      vertex 0.964293 7.94167 4
      vertex 3.09017 9.51056 4
    endloop
  endfacet
  facet normal 0 0 1
    outer loop
      vertex -3.09017 9.51056 4
      vertex -9.78148 2.07912 4
      vertex -1.04529 9.94522 4
    endloop
  endfacet
  facet normal 0 0 1
    outer loop
      vertex -5 8.66025 4
      vertex -9.78148 2.07912 4
      vertex -3.09017 9.51056 4
    endloop
  endfacet
  facet normal 0 0 1
    outer loop
      vertex -6.69131 7.43145 4
      vertex -9.78148 2.07912 4
      vertex -5 8.66025 4
    endloop
  endfacet
  facet normal 0 0 1
    outer loop
      vertex -8.09017 5.87785 4
      vertex -9.78148 2.07912 4
      vertex -6.69131 7.43145 4
    endloop
  endfacet
  facet normal 0 0 1
    outer loop
      vertex -9.13546 4.06737 4
      vertex -9.78148 2.07912 4
      vertex -8.09017 5.87785 4
    endloop
  endfacet
  facet normal 0 0 1
    outer loop
      vertex 8 0 4
      vertex 7.76753 -1.91452 4
      vertex 9.78148 -2.07912 4
    endloop
  endfacet
  facet normal 0 0 1
    outer loop
      vertex 0.964293 7.94167 4
      vertex 2.83684 7.48013 4
      vertex 5 8.66025 4
    endloop
  endfacet
  facet normal 0 0 1
    outer loop
      vertex 7.08365 3.71778 4
      vertex 7.76753 1.91452 4
      vertex 9.78148 2.07912 4
    endloop
  endfacet
  facet normal 0 0 1
    outer loop
      vertex -1.04529 9.94522 4
      vertex -9.78148 2.07912 4
      vertex -5.98809 5.30498 4
    endloop
  endfacet
  facet normal 0 0 1
    outer loop
      vertex -1.04529 9.94522 4
      vertex -4.54452 6.58387 4
      vertex 1.04529 9.94522 4
    endloop
  endfacet
  facet normal 0 0 1
    outer loop
      vertex -1.04529 9.94522 4
      vertex -5.98809 5.30498 4
      vertex -4.54452 6.58387 4
    endloop
  endfacet
  facet normal 0 0 1
    outer loop
      vertex -4.54452 6.58387 4
      vertex -2.83684 7.48013 4
      vertex 1.04529 9.94522 4
    endloop
  endfacet
  facet normal 0 0 1
    outer loop
      vertex 1.04529 9.94522 4
      vertex -0.964293 7.94167 4
      vertex 3.09017 9.51056 4
    endloop
  endfacet
  facet normal 0 0 1
    outer loop
      vertex 3.09017 9.51056 4
      vertex 0.964293 7.94167 4
      vertex 5 8.66025 4
    endloop
  endfacet
  facet normal 0 0 1
    outer loop
      vertex -7.08365 3.71778 4
      vertex -5.98809 5.30498 4
      vertex -9.78148 2.07912 4
    endloop
  endfacet
  facet normal 0 0 1
    outer loop
      vertex 5 8.66025 4
      vertex 2.83684 7.48013 4
      vertex 6.69131 7.43145 4
    endloop
  endfacet
  facet normal 0 0 1
    outer loop
      vertex 6.69131 7.43145 4
      vertex 4.54452 6.58387 4
      vertex 8.09017 5.87785 4
    endloop
  endfacet
  facet normal 0 0 1
    outer loop
      vertex 8.09017 5.87785 4
      vertex 5.98809 5.30498 4
      vertex 9.13546 4.06737 4
    endloop
  endfacet
  facet normal 0 0 1
    outer loop
      vertex 9.13546 4.06737 4
      vertex 7.08365 3.71778 4
      vertex 9.78148 2.07912 4
    endloop
  endfacet
  facet normal 0 0 1
    outer loop
      vertex 9.78148 2.07912 4
      vertex 7.76753 1.91452 4
      vertex 10 0 4
    endloop
  endfacet
  facet normal 0 0 1
    outer loop
      vertex 10 0 4
      vertex 8 0 4
      vertex 9.78148 -2.07912 4
    endloop
  endfacet
  facet normal 0 0 1
    outer loop
      vertex 2.83684 7.48013 4
      vertex 4.54452 6.58387 4
      vertex 6.69131 7.43145 4
    endloop
  endfacet
  facet normal 0 0 1
    outer loop
      vertex 9.78148 -2.07912 4
      vertex 7.76753 -1.91452 4
      vertex 9.13546 -4.06737 4
    endloop
  endfacet
  facet normal 0 0 1
    outer loop
      vertex 4.54452 6.58387 4
      vertex 5.98809 5.30498 4
      vertex 8.09017 5.87785 4
    endloop
  endfacet
  facet normal 0 0 1
    outer loop
      vertex 9.13546 -4.06737 4
      vertex 7.08365 -3.71778 4
      vertex 8.09017 -5.87785 4
    endloop
  endfacet
  facet normal 0 0 1
    outer loop
      vertex 5.98809 5.30498 4
      vertex 7.08365 3.71778 4
      vertex 9.13546 4.06737 4
    endloop
  endfacet
  facet normal 0 0 1
    outer loop
      vertex 8.09017 -5.87785 4
      vertex 5.98809 -5.30498 4
      vertex 6.69131 -7.43145 4
    endloop
  endfacet
  facet normal 0 0 1
    outer loop
      vertex 6.69131 -7.43145 4
      vertex 4.54452 -6.58387 4
      vertex 5 -8.66025 4
    endloop
  endfacet
  facet normal 0 0 1
    outer loop
      vertex 0.964293 -7.94167 4
      vertex -0.964293 -7.94167 4
      vertex 1.04529 -9.94522 4
    endloop
  endfacet
  facet normal 0 0 1
    outer loop
      vertex 5 -8.66025 4
      vertex 2.83684 -7.48013 4
      vertex 3.09017 -9.51056 4
    endloop
  endfacet
  facet normal 0 0 1
    outer loop
      vertex -7.76753 1.91452 4
      vertex -7.08365 3.71778 4
      vertex -9.78148 2.07912 4
    endloop
  endfacet
  facet normal 0 0 1
    outer loop
      vertex 3.09017 -9.51056 4
      vertex 0.964293 -7.94167 4
      vertex 1.04529 -9.94522 4
    endloop
  endfacet
  facet normal 0 0 1
    outer loop
      vertex 1.04529 -9.94522 4
      vertex -0.964293 -7.94167 4
      vertex -1.04529 -9.94522 4
    endloop
  endfacet
  facet normal 0 0 1
    outer loop
      vertex -1.04529 -9.94522 4
      vertex -2.83684 -7.48013 4
      vertex -3.09017 -9.51056 4
    endloop
  endfacet
  facet normal 0 0 1
    outer loop
      vertex 7.76753 -1.91452 4
      vertex 7.08365 -3.71778 4
      vertex 9.13546 -4.06737 4
    endloop
  endfacet
  facet normal 0 0 1
    outer loop
      vertex -2.83684 -7.48013 4
      vertex -4.54452 -6.58387 4
      vertex -3.09017 -9.51056 4
    endloop
  endfacet
  facet normal 0 0 1
    outer loop
      vertex -3.09017 -9.51056 4
      vertex -5.98809 -5.30498 4
      vertex -5 -8.66025 4
    endloop
  endfacet
  facet normal 0 0 1
    outer loop
      vertex -7.76753 -1.91452 4
      vertex -9.78148 2.07912 4
      vertex -7.08365 -3.71778 4
    endloop
  endfacet
  facet normal 0 0 1
    outer loop
      vertex -5.98809 -5.30498 4
      vertex -7.08365 -3.71778 4
      vertex -5 -8.66025 4
    endloop
  endfacet
  facet normal 0 0 1
    outer loop
      vertex -7.76753 -1.91452 4
      vertex -8 0 4
      vertex -9.78148 2.07912 4
    endloop
  endfacet
  facet normal 0 0 1
    outer loop
      vertex 5.98809 -5.30498 4
      vertex 4.54452 -6.58387 4
      vertex 6.69131 -7.43145 4
    endloop
  endfacet
  facet normal 0 0 1
    outer loop
      vertex 4.54452 -6.58387 4
      vertex 2.83684 -7.48013 4
      vertex 5 -8.66025 4
    endloop
  endfacet
  facet normal 0 0 1
    outer loop
      vertex 2.83684 -7.48013 4
      vertex 0.964293 -7.94167 4
      vertex 3.09017 -9.51056 4
    endloop
  endfacet
  facet normal 0 0 1
    outer loop
      vertex -4.54452 -6.58387 4
      vertex -5.98809 -5.30498 4
      vertex -3.09017 -9.51056 4
    endloop
  endfacet
  facet normal 0 0 1
    outer loop
      vertex -0.964293 -7.94167 4
      vertex -2.83684 -7.48013 4
      vertex -1.04529 -9.94522 4
    endloop
  endfacet
  facet normal 0 0 1
    outer loop
      vertex -8 0 4
      vertex -7.76753 1.91452 4
      vertex -9.78148 2.07912 4
    endloop
  endfacet
  facet normal 0 0 1
    outer loop
      vertex -1 -9.94522 2
      vertex -1 -10 2
      vertex 1 -10 2
    endloop
  endfacet
  facet normal 0 0 1
    outer loop
      vertex 1 -9.94522 2
      vertex -1 -9.94522 2
      vertex 1 -10 2
    endloop
  endfacet
  facet normal 0 0 1
    outer loop
      vertex 10 0 2
      vertex 9.8949 -1 2
      vertex 10 -1 2
    endloop
  endfacet
  facet normal 0 0 1
    outer loop
      vertex 10 1 2
      vertex 9.8949 1 2
      vertex 10 0 2
    endloop
  endfacet
  facet normal 0 0 1
    outer loop
      vertex -1 10 2
      vertex -1 9.94522 2
      vertex 1 9.94522 2
    endloop
  endfacet
  facet normal 0 0 1
    outer loop
      vertex 1 10 2
      vertex -1 10 2
      vertex 1 9.94522 2
    endloop
  endfacet
  facet normal 0 0 1
    outer loop
      vertex -7.87858 1 2
      vertex -8 0 2
      vertex -7.87858 -1 2
    endloop
  endfacet
  facet normal 0 0 1
    outer loop
      vertex 1 -1 2
      vertex -7.87858 1 2
      vertex -1 -1 2
    endloop
  endfacet
  facet normal 0 0 1
    outer loop
      vertex -1 -1 2
      vertex -7.87858 1 2
      vertex -7.87858 -1 2
    endloop
  endfacet
  facet normal 0 0 1
    outer loop
      vertex -0.964293 -7.94167 2
      vertex -1 -1 2
      vertex -1 -7.93287 2
    endloop
  endfacet
  facet normal 0 0 1
    outer loop
      vertex 0.964293 -7.94167 2
      vertex -1 -1 2
      vertex -0.964293 -7.94167 2
    endloop
  endfacet
  facet normal 0 0 1
    outer loop
      vertex 1 -7.93287 2
      vertex -1 -1 2
      vertex 0.964293 -7.94167 2
    endloop
  endfacet
  facet normal 0 0 1
    outer loop
      vertex 1 -1 2
      vertex -1 -1 2
      vertex 1 -7.93287 2
    endloop
  endfacet
  facet normal 0 0 1
    outer loop
      vertex 7.87858 -1 2
      vertex -7.87858 1 2
      vertex 1 -1 2
    endloop
  endfacet
  facet normal 0 0 1
    outer loop
      vertex 8 0 2
      vertex -7.87858 1 2
      vertex 7.87858 -1 2
    endloop
  endfacet
  facet normal 0 0 1
    outer loop
      vertex 1 1 2
      vertex -1 1 2
      vertex 8 0 2
    endloop
  endfacet
  facet normal 0 0 1
    outer loop
      vertex -1 1 2
      vertex -7.87858 1 2
      vertex 8 0 2
    endloop
  endfacet
  facet normal 0 0 1
    outer loop
      vertex 7.87858 1 2
      vertex 1 1 2
      vertex 8 0 2
    endloop
  endfacet
  facet normal 0 0 1
    outer loop
      vertex 1 7.93287 2
      vertex -1 1 2
      vertex 1 1 2
    endloop
  endfacet
  facet normal 0 0 1
    outer loop
      vertex -1 7.93287 2
      vertex 0.964293 7.94167 2
      vertex -0.964293 7.94167 2
    endloop
  endfacet
  facet normal 0 0 1
    outer loop
      vertex -1 7.93287 2
      vertex 1 7.93287 2
      vertex 0.964293 7.94167 2
    endloop
  endfacet
  facet normal 0 0 1
    outer loop
      vertex -1 7.93287 2
      vertex -1 1 2
      vertex 1 7.93287 2
    endloop
  endfacet
  facet normal 0 1 0
    outer loop
      vertex 0.964293 -7.94167 4
      vertex 0.964293 -7.94167 2
      vertex -0.964293 -7.94167 4
    endloop
  endfacet
  facet normal 0 1 0
    outer loop
      vertex -0.964293 -7.94167 4
      vertex 0.964293 -7.94167 2
      vertex -0.964293 -7.94167 2
    endloop
  endfacet
  facet normal 0 -1 0
    outer loop
      vertex 0.964293 7.94167 2
      vertex 0.964293 7.94167 4
      vertex -0.964293 7.94167 4
    endloop
  endfacet
  facet normal 0 -1 0
    outer loop
      vertex -0.964293 7.94167 2
      vertex 0.964293 7.94167 2
      vertex -0.964293 7.94167 4
    endloop
  endfacet
endsolid OpenSCAD_Model
